<svg xmlns="http://www.w3.org/2000/svg" width="382.89" height="63.05" viewBox="0 0 382.89 63.05"><title>Asset 6</title><g id="Layer_2" data-name="Layer 2"><g id="Layer_1-2" data-name="Layer 1"><path d="M38.28,22.34a11.51,11.51,0,0,1-2.15,6.73,14.42,14.42,0,0,1-6,4.79q-5.7,2.56-17.9,2.57,0,5.66,7.74,5.66A40.23,40.23,0,0,0,32.51,40l-2.2,8.23a40.42,40.42,0,0,1-12.42,2C13,50.23,9.25,49.16,6.49,47Q1.93,43.47,1.92,36.43A24.5,24.5,0,0,1,8.51,19.29a22.43,22.43,0,0,1,17.11-7.44,14.46,14.46,0,0,1,8.59,2.52A9.23,9.23,0,0,1,38.28,22.34ZM29,23.07c0-2.16-1.33-3.25-4-3.25a11.15,11.15,0,0,0-7.3,2.87A14.86,14.86,0,0,0,13.26,29c1,.1,1.82.15,2.34.15Q29,29.14,29,23.07Z" transform="translate(-1.17 -1.61)" style="fill:#363795;stroke:#fff;stroke-miterlimit:10;stroke-width:1.5px"/><path d="M65.76,12.26c-.64,2.52-1.33,5-2.05,7.56-4.08,0-6.91.8-8.47,2.4q-1.79,1.88-3.48,8.18L46.6,49.65H36.23l6.65-25q1.69-6.42,5.48-9.44,4.19-3.39,11.86-3.4A33.6,33.6,0,0,1,65.76,12.26Z" transform="translate(-1.17 -1.61)" style="fill:#363795;stroke:#fff;stroke-miterlimit:10;stroke-width:1.5px"/><path d="M101.12,25.71A29.3,29.3,0,0,1,100,33.09l-3.49,13Q94,55.22,88.85,59.56T75.08,63.91a43,43,0,0,1-9.85-1.2l2.35-8.82A30.91,30.91,0,0,0,76,55q7.45,0,9.56-6.36a19.93,19.93,0,0,1-8.47,1.61,13,13,0,0,1-9.49-3.63q-4-3.78-4-10.17a25.51,25.51,0,0,1,6.12-16.84,20.22,20.22,0,0,1,16.15-7.74q6.89,0,11.06,3.72T101.12,25.71ZM90.81,26.85q0-6.3-5.54-6.3-4.92,0-8.14,4.93a17.37,17.37,0,0,0-2.9,9.75c0,4.22,1.8,6.33,5.42,6.33q4.92,0,8.2-4.92A17.34,17.34,0,0,0,90.81,26.85Z" transform="translate(-1.17 -1.61)" style="fill:#363795;stroke:#fff;stroke-miterlimit:10;stroke-width:1.5px"/><path d="M120.9,12.44l-10,37.21H100.56l10-37.21Zm0,0-10,37.21H100.56l10-37.21Zm2.69-10.08-2,7.85h-10.4l2-7.85Z" transform="translate(-1.17 -1.61)" style="fill:#363795;stroke:#fff;stroke-miterlimit:10;stroke-width:1.5px"/><path d="M155.26,24a17.59,17.59,0,0,1-.67,4.66l-5.63,21H138.59L144.16,29a14.28,14.28,0,0,0,.61-3.78c0-3.1-1.52-4.66-4.57-4.66a6,6,0,0,0-5,2.41,24.58,24.58,0,0,0-3,7.44L127,49.65H116.62L122.19,29q2.34-8.67,6.18-12.6,4.51-4.53,12.8-4.54a15.13,15.13,0,0,1,10.14,3.36A11,11,0,0,1,155.26,24Z" transform="translate(-1.17 -1.61)" style="fill:#363795;stroke:#fff;stroke-miterlimit:10;stroke-width:1.5px"/><path d="M166.06,55.52a5.83,5.83,0,0,1-1.35,3.77A4.33,4.33,0,0,1,161.25,61a3.36,3.36,0,0,1-2.39-.78l-.67,2.46h-2.42l1.78-6.64c.72-2.66,2.34-4,4.86-4A3.75,3.75,0,0,1,165,53,3.21,3.21,0,0,1,166.06,55.52Zm-2.47.06a1.51,1.51,0,0,0-.38-1.06,1.39,1.39,0,0,0-1.05-.41,2.12,2.12,0,0,0-1.81,1.19,4.29,4.29,0,0,0-.63,2.24,1.42,1.42,0,0,0,.42,1.07,1.53,1.53,0,0,0,1.11.41,2,2,0,0,0,1.75-1.2A4.46,4.46,0,0,0,163.59,55.58Z" transform="translate(-1.17 -1.61)" style="fill:#21409a"/><path d="M175.09,54.53a2.71,2.71,0,0,1-.5,1.57,3.34,3.34,0,0,1-1.4,1.12,10.82,10.82,0,0,1-4.18.6c0,.88.61,1.32,1.81,1.32a9.51,9.51,0,0,0,2.92-.49l-.51,1.92a9.55,9.55,0,0,1-2.9.47,4.25,4.25,0,0,1-2.66-.75,2.94,2.94,0,0,1-1.06-2.47,5.7,5.7,0,0,1,1.54-4,5.21,5.21,0,0,1,4-1.74,3.38,3.38,0,0,1,2,.59A2.17,2.17,0,0,1,175.09,54.53Zm-2.17.17c0-.5-.31-.76-.93-.76a2.64,2.64,0,0,0-1.7.67,3.55,3.55,0,0,0-1,1.47,4.65,4.65,0,0,0,.55,0C171.88,56.12,172.92,55.65,172.92,54.7Z" transform="translate(-1.17 -1.61)" style="fill:#21409a"/><path d="M181.5,52.18c-.15.59-.31,1.17-.48,1.76a2.73,2.73,0,0,0-2,.56,4.79,4.79,0,0,0-.81,1.91L177,60.9h-2.42l1.55-5.82a4,4,0,0,1,1.28-2.2,4.29,4.29,0,0,1,2.77-.8A8.05,8.05,0,0,1,181.5,52.18Z" transform="translate(-1.17 -1.61)" style="fill:#21409a"/><path d="M187.83,52.49l-.48,1.76a7.38,7.38,0,0,0-2.08-.31q-1.26,0-1.26.75,0,.42.75.78l1,.49a2.47,2.47,0,0,1,1.48,2.17,2.49,2.49,0,0,1-1.27,2.2,4.87,4.87,0,0,1-2.66.71,9.44,9.44,0,0,1-3-.49l.51-1.86a7.06,7.06,0,0,0,2.5.43q1.44,0,1.44-.81c0-.3-.32-.6-1-.91-.23-.1-.59-.28-1.08-.53a2.23,2.23,0,0,1-1.13-2,2.42,2.42,0,0,1,.94-2,4.17,4.17,0,0,1,2.77-.86A9,9,0,0,1,187.83,52.49Z" transform="translate(-1.17 -1.61)" style="fill:#21409a"/><path d="M197.08,55.4a5.73,5.73,0,0,1-1.41,3.75,5,5,0,0,1-4,1.89,3.76,3.76,0,0,1-2.62-.88,3.1,3.1,0,0,1-1-2.44A5.73,5.73,0,0,1,189.51,54a4.94,4.94,0,0,1,4-1.89,3.8,3.8,0,0,1,2.61.86A3.16,3.16,0,0,1,197.08,55.4Zm-2.53.17a1.51,1.51,0,0,0-.35-1.06,1.29,1.29,0,0,0-1-.4,2.2,2.2,0,0,0-1.88,1.17,4,4,0,0,0-.69,2.28,1.57,1.57,0,0,0,.35,1.06,1.29,1.29,0,0,0,1,.4,2.23,2.23,0,0,0,1.89-1.17A4.06,4.06,0,0,0,194.55,55.57Z" transform="translate(-1.17 -1.61)" style="fill:#21409a"/><path d="M205.89,54.93a4.28,4.28,0,0,1-.16,1.08l-1.31,4.89H202l1.3-4.82a3.53,3.53,0,0,0,.14-.88,1,1,0,0,0-1.07-1.09,1.41,1.41,0,0,0-1.16.56,5.79,5.79,0,0,0-.7,1.74l-1.22,4.49h-2.42l1.3-4.82a6.6,6.6,0,0,1,1.44-2.94,4.05,4.05,0,0,1,3-1.06,3.47,3.47,0,0,1,2.36.79A2.56,2.56,0,0,1,205.89,54.93Z" transform="translate(-1.17 -1.61)" style="fill:#21409a"/><path d="M215,54.53a2.65,2.65,0,0,1-.51,1.57,3.28,3.28,0,0,1-1.4,1.12,10.76,10.76,0,0,1-4.17.6q0,1.32,1.8,1.32a9.57,9.57,0,0,0,2.93-.49l-.51,1.92a9.6,9.6,0,0,1-2.9.47,4.23,4.23,0,0,1-2.66-.75,2.94,2.94,0,0,1-1.07-2.47,5.7,5.7,0,0,1,1.54-4,5.24,5.24,0,0,1,4-1.74,3.41,3.41,0,0,1,2,.59A2.17,2.17,0,0,1,215,54.53Zm-2.17.17c0-.5-.31-.76-.93-.76a2.6,2.6,0,0,0-1.7.67,3.46,3.46,0,0,0-1,1.47,4.51,4.51,0,0,0,.54,0C211.78,56.12,212.82,55.65,212.82,54.7Z" transform="translate(-1.17 -1.61)" style="fill:#21409a"/><path d="M219.73,50.47l-2.8,10.43h-2.42l2.8-10.43Z" transform="translate(-1.17 -1.61)" style="fill:#21409a"/><path d="M231.77,52.22l-3.63,6.72a4.82,4.82,0,0,1-1.21,1.6,2.72,2.72,0,0,1-1.69.5c-1.26,0-1.89-.86-1.89-2.59V52.22h2.27v6.92h0l3.57-6.92Z" transform="translate(-1.17 -1.61)" style="fill:#21409a"/><path d="M239.4,54.53a2.64,2.64,0,0,1-.5,1.57,3.28,3.28,0,0,1-1.4,1.12,10.79,10.79,0,0,1-4.17.6q0,1.32,1.8,1.32a9.62,9.62,0,0,0,2.93-.49l-.52,1.92a9.54,9.54,0,0,1-2.89.47,4.23,4.23,0,0,1-2.66-.75,2.94,2.94,0,0,1-1.07-2.47,5.7,5.7,0,0,1,1.54-4,5.21,5.21,0,0,1,4-1.74,3.38,3.38,0,0,1,2,.59A2.14,2.14,0,0,1,239.4,54.53Zm-2.16.17c0-.5-.31-.76-.93-.76a2.64,2.64,0,0,0-1.71.67,3.53,3.53,0,0,0-1,1.47,4.51,4.51,0,0,0,.54,0C236.2,56.12,237.24,55.65,237.24,54.7Z" transform="translate(-1.17 -1.61)" style="fill:#21409a"/><path d="M252.32,55.4a5.77,5.77,0,0,1-1.4,3.75,5,5,0,0,1-4,1.89,3.78,3.78,0,0,1-2.62-.88,3.1,3.1,0,0,1-1-2.44A5.69,5.69,0,0,1,244.76,54a4.91,4.91,0,0,1,4-1.89,3.78,3.78,0,0,1,2.61.86A3.16,3.16,0,0,1,252.32,55.4Zm-2.53.17a1.55,1.55,0,0,0-.34-1.06,1.31,1.31,0,0,0-1-.4,2.2,2.2,0,0,0-1.88,1.17,4,4,0,0,0-.69,2.28,1.57,1.57,0,0,0,.35,1.06,1.29,1.29,0,0,0,1,.4,2.23,2.23,0,0,0,1.89-1.17A4.06,4.06,0,0,0,249.79,55.57Zm-1.11-6.14a1.13,1.13,0,0,1,.23.87,1.39,1.39,0,0,1-.43.87,1.12,1.12,0,0,1-.83.37.89.89,0,0,1-.75-.37,1.13,1.13,0,0,1-.23-.87,1.39,1.39,0,0,1,.43-.87,1.15,1.15,0,0,1,.83-.36A.91.91,0,0,1,248.68,49.43Zm3.16,0a1.13,1.13,0,0,1,.23.87,1.43,1.43,0,0,1-.42.87,1.16,1.16,0,0,1-.84.37.89.89,0,0,1-.74-.37,1.18,1.18,0,0,1-.24-.87,1.39,1.39,0,0,1,.43-.87,1.15,1.15,0,0,1,.83-.36A.91.91,0,0,1,251.84,49.43Z" transform="translate(-1.17 -1.61)" style="fill:#21409a"/><path d="M261.57,55.32a7.19,7.19,0,0,1-.26,1.72l-.82,3a6.07,6.07,0,0,1-1.78,3.15,4.88,4.88,0,0,1-3.21,1,9.83,9.83,0,0,1-2.3-.28l.55-2.06a7.15,7.15,0,0,0,2,.26,2.11,2.11,0,0,0,2.23-1.49,4.69,4.69,0,0,1-2,.38,3,3,0,0,1-2.21-.85,3.12,3.12,0,0,1-.93-2.37,6,6,0,0,1,1.43-3.93A4.73,4.73,0,0,1,258,52.08a3.73,3.73,0,0,1,2.58.87A3,3,0,0,1,261.57,55.32Zm-2.4.26c0-1-.43-1.47-1.3-1.47a2.24,2.24,0,0,0-1.9,1.15,4.08,4.08,0,0,0-.67,2.28c0,1,.42,1.48,1.26,1.48a2.28,2.28,0,0,0,1.92-1.15A4.08,4.08,0,0,0,259.17,55.58ZM256,49.63h1.56a.88.88,0,0,0,.88.63,1.7,1.7,0,0,0,1.21-.63h1.7a3.91,3.91,0,0,1-3.25,1.94A1.92,1.92,0,0,1,256,49.63Z" transform="translate(-1.17 -1.61)" style="fill:#21409a"/><path d="M268.24,52.18c-.15.59-.31,1.17-.47,1.76a2.74,2.74,0,0,0-2,.56,4.79,4.79,0,0,0-.81,1.91l-1.21,4.49h-2.42l1.56-5.82a4,4,0,0,1,1.27-2.2,4.29,4.29,0,0,1,2.77-.8A8.05,8.05,0,0,1,268.24,52.18Z" transform="translate(-1.17 -1.61)" style="fill:#21409a"/><path d="M276.23,54.53a2.71,2.71,0,0,1-.5,1.57,3.4,3.4,0,0,1-1.4,1.12,10.82,10.82,0,0,1-4.18.6c0,.88.6,1.32,1.81,1.32a9.56,9.56,0,0,0,2.92-.49l-.51,1.92a9.6,9.6,0,0,1-2.9.47,4.23,4.23,0,0,1-2.66-.75,2.94,2.94,0,0,1-1.06-2.47,5.73,5.73,0,0,1,1.53-4,5.24,5.24,0,0,1,4-1.74,3.38,3.38,0,0,1,2,.59A2.17,2.17,0,0,1,276.23,54.53Zm-2.17.17c0-.5-.31-.76-.93-.76a2.64,2.64,0,0,0-1.7.67,3.55,3.55,0,0,0-1,1.47,4.52,4.52,0,0,0,.55,0C273,56.12,274.06,55.65,274.06,54.7Z" transform="translate(-1.17 -1.61)" style="fill:#21409a"/><path d="M284.77,54.93a4.28,4.28,0,0,1-.16,1.08L283.3,60.9h-2.42l1.3-4.82a3.53,3.53,0,0,0,.14-.88,1,1,0,0,0-1.07-1.09,1.41,1.41,0,0,0-1.16.56,5.79,5.79,0,0,0-.7,1.74l-1.22,4.49h-2.42l1.3-4.82a6.6,6.6,0,0,1,1.44-2.94,4.05,4.05,0,0,1,3-1.06,3.47,3.47,0,0,1,2.36.79A2.56,2.56,0,0,1,284.77,54.93Z" transform="translate(-1.17 -1.61)" style="fill:#21409a"/><path d="M293.67,52.84l-.49,1.81a6,6,0,0,0-2.34-.54,2.72,2.72,0,0,0-2.14,1,3.23,3.23,0,0,0-.8,2.21c0,1.15.66,1.73,2,1.73a8.3,8.3,0,0,0,2.39-.4l-.52,1.93a8.42,8.42,0,0,1-2.66.49,3.82,3.82,0,0,1-2.69-.92,3.34,3.34,0,0,1-1-2.58,5.39,5.39,0,0,1,1.42-3.76,5,5,0,0,1,3.87-1.7A6.25,6.25,0,0,1,293.67,52.84Z" transform="translate(-1.17 -1.61)" style="fill:#21409a"/><path d="M297.51,52.22l-2.33,8.68h-2.42l2.33-8.68Zm0,0-2.33,8.68h-2.42l2.33-8.68Zm.63-2.35-.47,1.83h-2.43l.48-1.83Z" transform="translate(-1.17 -1.61)" style="fill:#21409a"/><path d="M306.87,52.22l-.53,2H304l-.41,1.59a9.4,9.4,0,0,0-.39,2,1.21,1.21,0,0,0,1.38,1.36,5.72,5.72,0,0,0,1.4-.21l-.52,1.91a7,7,0,0,1-1.7.22,3,3,0,0,1-2.2-.83,2.85,2.85,0,0,1-.83-2.15,8.75,8.75,0,0,1,.38-2.09l1.36-5.06h2.42l-.35,1.31Z" transform="translate(-1.17 -1.61)" style="fill:#21409a"/><path d="M316,55.28a4.23,4.23,0,0,1-.15,1.07l-1.22,4.55h-2.28l.29-1.09A3.59,3.59,0,0,1,309.9,61a2.52,2.52,0,0,1-1.95-.88,3.31,3.31,0,0,1-.78-2.27,6,6,0,0,1,1.43-4,4.74,4.74,0,0,1,3.8-1.85A3.7,3.7,0,0,1,315,53,3,3,0,0,1,316,55.28Zm-2.46.24c0-.94-.42-1.41-1.27-1.41a2.23,2.23,0,0,0-1.91,1.21,4.17,4.17,0,0,0-.69,2.29,1.63,1.63,0,0,0,.3,1,1,1,0,0,0,.83.39,2.43,2.43,0,0,0,1.94-1.26A3.88,3.88,0,0,0,313.52,55.52Z" transform="translate(-1.17 -1.61)" style="fill:#21409a"/><path d="M323.94,52.49l-.48,1.76a7.38,7.38,0,0,0-2.08-.31q-1.26,0-1.26.75,0,.42.75.78l1,.49a2.47,2.47,0,0,1,1.48,2.17,2.49,2.49,0,0,1-1.27,2.2,4.87,4.87,0,0,1-2.66.71,9.44,9.44,0,0,1-3-.49l.51-1.86a7.06,7.06,0,0,0,2.5.43q1.44,0,1.44-.81c0-.3-.32-.6-1-.91-.23-.1-.59-.28-1.08-.53a2.23,2.23,0,0,1-1.13-2,2.42,2.42,0,0,1,.94-2,4.17,4.17,0,0,1,2.77-.86A9,9,0,0,1,323.94,52.49Zm-4,10.64.52-1.83h-2.4l-.54,1.83Z" transform="translate(-1.17 -1.61)" style="fill:#21409a"/><path d="M328.24,52.22l-2.32,8.68H323.5l2.32-8.68Z" transform="translate(-1.17 -1.61)" style="fill:#21409a"/><path d="M341.2,54.93a4.25,4.25,0,0,1-.15,1.08l-1.32,4.89h-2.37l1.29-4.82a3.17,3.17,0,0,0,.15-.88,1,1,0,0,0-1.1-1.09,1.32,1.32,0,0,0-1.12.56,5.91,5.91,0,0,0-.68,1.74l-1.22,4.49H332.3l1.3-4.82a3.53,3.53,0,0,0,.14-.88,1,1,0,0,0-1.09-1.09,1.31,1.31,0,0,0-1.12.56,5.6,5.6,0,0,0-.69,1.74l-1.22,4.49h-2.37l1.29-4.82a7.18,7.18,0,0,1,1.39-2.94,3.89,3.89,0,0,1,2.93-1.06,2.82,2.82,0,0,1,2.45,1.19,3.54,3.54,0,0,1,2.74-1.19,3.29,3.29,0,0,1,2.3.78A2.66,2.66,0,0,1,341.2,54.93Z" transform="translate(-1.17 -1.61)" style="fill:#21409a"/><path d="M350.62,55.28a4.23,4.23,0,0,1-.15,1.07l-1.22,4.55H347l.3-1.09A3.62,3.62,0,0,1,344.55,61a2.53,2.53,0,0,1-2-.88,3.36,3.36,0,0,1-.77-2.27,6,6,0,0,1,1.43-4A4.72,4.72,0,0,1,347,52.08a3.72,3.72,0,0,1,2.6.9A3,3,0,0,1,350.62,55.28Zm-2.46.24q0-1.41-1.26-1.41A2.24,2.24,0,0,0,345,55.32a4.17,4.17,0,0,0-.69,2.29,1.63,1.63,0,0,0,.3,1,1,1,0,0,0,.84.39,2.42,2.42,0,0,0,1.93-1.26A3.81,3.81,0,0,0,348.16,55.52Z" transform="translate(-1.17 -1.61)" style="fill:#21409a"/><path d="M359.54,52.84l-.49,1.81a6,6,0,0,0-2.34-.54,2.72,2.72,0,0,0-2.14,1,3.22,3.22,0,0,0-.79,2.21c0,1.15.65,1.73,2,1.73a8.3,8.3,0,0,0,2.39-.4l-.52,1.93a8.42,8.42,0,0,1-2.66.49,3.82,3.82,0,0,1-2.69-.92,3.34,3.34,0,0,1-1-2.58,5.39,5.39,0,0,1,1.42-3.76,5,5,0,0,1,3.87-1.7A6.25,6.25,0,0,1,359.54,52.84Z" transform="translate(-1.17 -1.61)" style="fill:#21409a"/><path d="M363.38,52.22l-2.32,8.68h-2.42L361,52.22Z" transform="translate(-1.17 -1.61)" style="fill:#21409a"/><path d="M367.6,50.47,364.8,60.9h-2.42l2.8-10.43Z" transform="translate(-1.17 -1.61)" style="fill:#21409a"/><path d="M370.87,52.22l-2.32,8.68h-2.42l2.32-8.68Z" transform="translate(-1.17 -1.61)" style="fill:#21409a"/><path d="M379.54,55.32a6.78,6.78,0,0,1-.27,1.72l-.81,3a6.07,6.07,0,0,1-1.78,3.15,4.89,4.89,0,0,1-3.22,1,9.75,9.75,0,0,1-2.29-.28l.54-2.06a7.25,7.25,0,0,0,2,.26,2.1,2.1,0,0,0,2.23-1.49,4.61,4.61,0,0,1-2,.38,3,3,0,0,1-2.22-.85,3.15,3.15,0,0,1-.92-2.37,6,6,0,0,1,1.43-3.93A4.73,4.73,0,0,1,376,52.08a3.73,3.73,0,0,1,2.58.87A3,3,0,0,1,379.54,55.32Zm-2.41.26q0-1.47-1.29-1.47a2.24,2.24,0,0,0-1.9,1.15,4.09,4.09,0,0,0-.68,2.28c0,1,.43,1.48,1.27,1.48a2.26,2.26,0,0,0,1.91-1.15A4.08,4.08,0,0,0,377.13,55.58ZM374,49.63h1.57a.87.87,0,0,0,.88.63,1.66,1.66,0,0,0,1.2-.63h1.71a3.91,3.91,0,0,1-3.25,1.94A1.93,1.93,0,0,1,374,49.63Z" transform="translate(-1.17 -1.61)" style="fill:#21409a"/><path d="M384.07,52.22l-2.33,8.68h-2.42l2.33-8.68Z" transform="translate(-1.17 -1.61)" style="fill:#21409a"/></g></g></svg>